<?xml version="1.0" encoding="UTF-8" standalone="no"?>
<!-- Created with Inkscape (http://www.inkscape.org/) -->

<svg
   xmlns:dc="http://purl.org/dc/elements/1.1/"
   xmlns:cc="http://creativecommons.org/ns#"
   xmlns:rdf="http://www.w3.org/1999/02/22-rdf-syntax-ns#"
   xmlns:svg="http://www.w3.org/2000/svg"
   xmlns="http://www.w3.org/2000/svg"
   xmlns:sodipodi="http://sodipodi.sourceforge.net/DTD/sodipodi-0.dtd"
   xmlns:inkscape="http://www.inkscape.org/namespaces/inkscape"
   width="50mm"
   height="50mm"
   viewBox="0 0 177.16535 177.16535"
   id="svg4343"
   version="1.1"
   inkscape:version="0.91 r13725"
   sodipodi:docname="favicon.svg">
  <defs
     id="defs4345" />
  <sodipodi:namedview
     id="base"
     pagecolor="#ffffff"
     bordercolor="#666666"
     borderopacity="1.0"
     inkscape:pageopacity="0.0"
     inkscape:pageshadow="2"
     inkscape:zoom="1.979899"
     inkscape:cx="60.246673"
     inkscape:cy="103.28626"
     inkscape:document-units="px"
     inkscape:current-layer="layer1"
     showgrid="false"
     inkscape:window-width="1280"
     inkscape:window-height="739"
     inkscape:window-x="0"
     inkscape:window-y="0"
     inkscape:window-maximized="1" />
  <metadata
     id="metadata4348">
    <rdf:RDF>
      <cc:Work
         rdf:about="">
        <dc:format>image/svg+xml</dc:format>
        <dc:type
           rdf:resource="http://purl.org/dc/dcmitype/StillImage" />
        <dc:title />
      </cc:Work>
    </rdf:RDF>
  </metadata>
  <g
     inkscape:label="Calque 1"
     inkscape:groupmode="layer"
     id="layer1"
     transform="translate(0,-875.19685)">
    <path
       style="display:inline;fill:#435b72;fill-opacity:1"
       d="m 98.297514,882.92052 0,0.31267 -43.12226,0 -3.470586,0 c -30.097972,0 -42.5457103,12.31313 -42.5457103,44.94611 l 0,8.00312 c 0,27.39939 8.6854913,40.63489 42.5457103,40.63489 l 7.992517,0 a 34.350156,36.540601 0 0 1 -2.594474,-13.85362 34.350156,36.540601 0 0 1 2.961872,-14.7736 l -5.465879,0 c -10.70793,0 -14.758452,-3.6943 -14.758452,-13.85362 l 0.288246,-10.46839 c 0,-12.31433 3.470586,-15.08385 10.705673,-15.69957 l 120.023329,0 0,-25.24799 -72.560015,0 z"
       id="path3348" />
    <path
       style="display:inline;fill:#ff6712;fill-opacity:1"
       d="m 60.064583,948.19009 62.758747,0 A 34.350156,36.540601 0 0 0 91.458099,926.42355 34.350156,36.540601 0 0 0 60.064583,948.19009 Z"
       id="path3346" />
    <path
       style="display:inline;fill:#435b72;fill-opacity:1"
       d="m 122.82333,948.19009 a 34.350156,36.540601 0 0 1 2.98448,14.7736 34.350156,36.540601 0 0 1 -2.58316,13.85362 l 0.2486,0 c 11.57614,0 16.78766,3.6943 16.78766,13.85363 l 0,8.62243 c 0,10.77503 -5.21039,13.54693 -17.07594,13.54693 l -114.3144023,0 0,30.1665 116.0496923,0 c 33.57082,0 46.0163,-11.6986 46.0163,-41.5608 l 0,-12.62101 c 0,-28.93868 -12.44548,-40.6349 -46.0163,-40.6349 l -2.09704,0 z"
       id="path3344" />
    <path
       style="display:inline;fill:#ff6712;fill-opacity:1"
       d="m 123.22465,976.81731 -63.527465,0 a 34.350156,36.540601 0 0 0 31.760914,22.68652 34.350156,36.540601 0 0 0 31.766551,-22.68652 z"
       id="S" />
  </g>
</svg>
