<?xml version="1.0" encoding="utf-8"?>
<!-- Generator: Adobe Illustrator 18.0.0, SVG Export Plug-In . SVG Version: 6.00 Build 0)  -->
<!DOCTYPE svg PUBLIC "-//W3C//DTD SVG 1.1//EN" "http://www.w3.org/Graphics/SVG/1.1/DTD/svg11.dtd">
<svg version="1.1" id="Calque_1" xmlns="http://www.w3.org/2000/svg" xmlns:xlink="http://www.w3.org/1999/xlink" x="0px" y="0px"
	 viewBox="0 0 439.4 70.9" enable-background="new 0 0 439.4 70.9" xml:space="preserve" style="fill:#ECECEC">
<g id="M">
	<polygon id="M2" points="364.3,28.9 364.3,64.7 373.9,64.7 373.9,38 367.2,28.9 	"/>
	<polygon id="M1" points="421.1,64.7 430.9,64.7 430.9,28.9 428.6,28.9 421.1,38.8 	"/>
</g>
<path id="U_1_" d="M341.9,48.2c0,6-2.2,7.7-8.5,7.7h-16c-6.4,0-8.5-1.8-8.5-7.6V28.8H298v19.8c0,12,4.1,16.1,18.2,16.1h17.9
	c14.1,0,18.3-4,18.3-16.1V28.8h-10.6V48.2z"/>
<g id="I_1_">
	<path id="I2_1_" d="M282.7,25.3c2.6,0,4.8-1.9,5.2-4.5h-10.5C277.9,23.4,280.1,25.3,282.7,25.3z"/>
	<path id="I1_3_" d="M277.4,64.7V28.8H288v35.9H277.4z"/>
</g>
<path id="R_1_" d="M256.1,32.2v2.6c0,5.2-2,6-8.9,6h-26.1V28.9h-10.6v35.8h10.6v-17l27.9,17h18.3l-28-15.8h8.4c13,0,19-2.9,19-13.9
	v-3.3c0-1-0.1-1.9-0.1-2.7h-11C256,29.7,256.1,30.8,256.1,32.2z"/>
<g id="A">
	<polygon id="A3_1_" points="139.7,64.7 127.4,64.7 150.2,28.8 161.9,28.8 	"/>
	<circle id="A2_1_" cx="163.9" cy="48.7" r="5.3"/>
	<polygon id="A1_1_" points="188.2,64.7 200.5,64.7 177.9,28.8 165.9,28.8 	"/>
</g>
<g id="T">
	<path id="T2" d="M421.9,12.7l-23.5,31l-23.5-31H107.7v52h11.7V20.8h158c0-0.3-0.1-0.6-0.1-0.9c0-2.9,2.4-5.3,5.3-5.3
		s5.3,2.4,5.3,5.3c0,0.3,0,0.6-0.1,0.9h82.3l5.9,8l6.7,9.1l8.4,11.5c0,0,2.9,5,6.9,5s7-5,7-5l8.2-10.7l7.6-9.9l6.1-8h4v-8.2H421.9z"
		/>
	<path id="T1" d="M61.3,12.7v8.2h11.2c0-0.3-0.1-0.6-0.1-0.9c0-2.9,2.4-5.3,5.3-5.3s5.3,2.4,5.3,5.3c0,0.3,0,0.6-0.1,0.9H93v43.8
		h11.7v-52H61.3z"/>
</g>
<g id="I">
	<path id="I2" d="M77.7,25.3c2.6,0,4.8-1.9,5.2-4.5H72.5C72.9,23.4,75.1,25.3,77.7,25.3z"/>
	<path id="I1_2_" d="M72.4,64.7V27.8h10.6v36.9H72.4z"/>
</g>
<path id="S" d="M40.6,12.7H25.7h-1.2c-10.4,0-14.7,4-14.7,14.6v2.6c0,8.9,3,13.2,14.7,13.2h24.8c4,0,5.8,1.2,5.8,4.5v2.8
	c0,3.5-1.8,4.4-5.9,4.4H9.7v9.8h40.1c11.6,0,15.9-3.8,15.9-13.5v-4.1c0-9.4-4.3-13.2-15.9-13.2H25.5c-3.7,0-5.1-1.2-5.1-4.5l0.1-3.4
	c0-4,1.2-4.9,3.7-5.1h30.4v-8.2H40.6z"/>
</svg>
